<svg width="16" height="16" viewBox="0 0 16 16" fill="none" xmlns="http://www.w3.org/2000/svg">
    <path fill-rule="evenodd" clip-rule="evenodd"
          d="M12.25 0H3.75C1.67893 0 0 1.67893 0 3.75V12.25C0 14.3211 1.67893 16 3.75 16H12.25C14.3211 16 16 14.3211 16 12.25V3.75C16 1.67893 14.3211 0 12.25 0ZM5.46094 9.20106C5.46094 9.83975 5.0675 10.8074 3.82225 10.8054H2.25V5.1875H3.85544C5.05638 5.1875 5.46025 6.15375 5.46063 6.79281L5.46094 9.20106ZM3.91138 6.23869C4.04288 6.23869 4.17469 6.28794 4.30613 6.38637C4.43725 6.48481 4.50338 6.63287 4.50362 6.82981V9.19462C4.50362 9.39188 4.438 9.53956 4.3065 9.63806C4.175 9.7365 4.04319 9.78575 3.91169 9.78575H3.32044V6.23869H3.91138ZM7.06706 6.19081H8.87244L8.87281 5.1885H6.73163C6.35381 5.198 6.05463 5.51244 6.06375 5.891V10.1389C6.07325 10.5177 6.38769 10.8173 6.76581 10.8074H8.87281V9.80338H7.06706V8.49925H8.17069V7.49525H7.06706V6.19081ZM10.7768 10.1053C11.1356 10.9415 11.937 11.1493 12.3843 10.1053L13.6875 5.18888H12.5835L11.5816 9.05L10.5748 5.18888H9.47119L10.7768 10.1053Z"
          fill="#737373"/>
</svg>

